<?xml version="1.0" standalone="no"?>
<!DOCTYPE svg PUBLIC "-//W3C//DTD SVG 20010904//EN"
 "http://www.w3.org/TR/2001/REC-SVG-20010904/DTD/svg10.dtd">
<svg version="1.0" xmlns="http://www.w3.org/2000/svg"
 width="280.000000pt" height="170.000000pt" viewBox="0 0 280.000000 170.000000"
 preserveAspectRatio="xMidYMid meet">
<metadata>
Created by potrace 1.10, written by Peter Selinger 2001-2011
</metadata>
<g transform="translate(0.000000,170.000000) scale(0.100000,-0.100000)"
fill="#000000" stroke="none">
<path d="M989 1411 c-113 -36 -242 -148 -294 -255 -58 -120 -26 -236 106 -380
61 -66 71 -81 61 -95 -59 -80 -77 -132 -69 -199 10 -91 118 -172 229 -172 122
0 172 67 114 153 l-24 35 91 30 c51 17 100 33 111 38 17 7 18 -1 15 -169 -2
-96 -1 -178 2 -181 20 -20 28 34 29 190 1 94 5 175 8 181 4 6 30 22 57 36 68
34 181 116 230 165 l39 40 58 -61 c31 -34 57 -67 58 -73 0 -6 -7 -18 -17 -25
-27 -23 -63 -111 -63 -157 0 -80 53 -149 144 -187 95 -40 218 -5 224 63 5 54
-40 115 -216 294 l-164 167 35 43 c79 97 111 192 83 247 -16 30 -80 71 -111
71 -26 0 -17 15 38 67 118 111 263 154 363 107 40 -19 90 -83 106 -136 6 -21
15 -38 19 -38 35 0 3 102 -49 153 -72 70 -160 85 -275 46 -70 -24 -169 -90
-219 -147 l-33 -38 -90 -2 c-163 -3 -413 -83 -464 -148 -28 -36 -26 -58 5 -83
29 -23 142 -61 180 -61 l24 0 0 -164 0 -165 -77 -29 c-43 -16 -94 -35 -113
-41 l-36 -11 -122 120 c-232 229 -276 294 -277 405 0 59 5 78 30 123 52 96
190 207 280 226 133 28 218 -13 271 -132 23 -50 44 -62 44 -25 0 26 -38 99
-68 129 -63 63 -164 80 -273 45z m649 -247 c-14 -25 -23 -59 -26 -110 -4 -69
-2 -79 28 -141 l33 -67 -54 -49 c-49 -44 -240 -177 -253 -177 -3 0 -6 68 -6
151 l0 151 50 -7 c42 -6 50 -4 50 9 0 10 -9 16 -25 17 -14 1 -29 3 -35 4 -5 1
-16 3 -24 4 -8 0 -16 18 -20 41 -4 27 -11 40 -22 40 -13 0 -15 -7 -10 -33 3
-18 4 -36 1 -39 -3 -3 -34 3 -68 12 -145 41 -158 67 -63 127 46 30 126 58 216
78 93 20 107 22 182 24 l67 1 -21 -36z m111 6 c49 -25 66 -65 50 -123 -11 -40
-86 -167 -99 -167 -17 0 -60 120 -60 164 0 54 36 146 57 146 7 0 31 -9 52 -20z
m-769 -575 c67 -67 80 -85 67 -91 -26 -10 -20 -25 7 -18 21 5 28 0 45 -35 42
-81 22 -116 -64 -115 -90 2 -172 54 -200 128 -13 34 -14 51 -5 91 11 47 48
125 60 125 3 0 43 -38 90 -85z m942 -2 c89 -92 133 -151 143 -193 10 -40 -24
-65 -88 -64 -122 2 -229 104 -211 201 7 41 53 143 64 143 3 0 45 -39 92 -87z" stroke="#64ffda" fill="#0a192f" fill-opacity="0.5" stroke-opacity="0.8"/>
</g>
</svg>
